<?xml version="1.0" standalone="no"?>
<!DOCTYPE svg PUBLIC "-//W3C//DTD SVG 20010904//EN"
 "http://www.w3.org/TR/2001/REC-SVG-20010904/DTD/svg10.dtd">
<svg version="1.0" xmlns="http://www.w3.org/2000/svg"
 width="1582.000000pt" height="1224.000000pt" viewBox="0 0 1582.000000 1224.000000"
 preserveAspectRatio="xMidYMid meet">
<metadata>
Created by potrace 1.16, written by Peter Selinger 2001-2019
</metadata>
<g transform="translate(0.000000,1224.000000) scale(0.100000,-0.100000)"
fill="#000000" stroke="none">
<path d="M7603 11951 c-79 -4 -147 -11 -153 -17 -9 -9 -7 -318 19 -3379 7
-891 7 -957 -10 -1057 -27 -155 -41 -207 -50 -183 -4 11 -12 531 -18 1155 -25
2617 -34 3335 -41 3343 -4 5 -45 2 -91 -7 -46 -9 -147 -25 -224 -36 -696 -100
-973 -191 -1280 -423 -104 -79 -302 -245 -387 -326 -302 -284 -552 -698 -719
-1191 -99 -289 -149 -547 -180 -910 -18 -218 -94 -842 -134 -1100 -8 -52 -22
-149 -30 -215 -24 -180 -64 -412 -79 -456 -24 -69 -95 -177 -265 -403 -220
-292 -319 -431 -569 -807 -499 -748 -594 -909 -777 -1314 -42 -93 -85 -189
-96 -212 -10 -24 -19 -45 -19 -48 0 -3 -13 -34 -29 -68 -15 -34 -41 -91 -56
-127 -16 -36 -43 -99 -61 -140 -18 -41 -49 -115 -69 -165 -20 -49 -43 -103
-50 -120 -8 -16 -35 -84 -60 -150 -26 -66 -53 -133 -60 -150 -94 -219 -197
-524 -252 -748 l-37 -148 24 -45 c36 -66 165 -238 304 -404 67 -80 139 -167
160 -195 22 -27 136 -146 254 -264 181 -181 216 -212 222 -195 4 10 17 78 29
149 68 402 134 737 185 935 113 441 207 737 326 1025 34 83 73 177 85 210 13
33 43 107 68 165 24 58 61 148 82 200 20 52 46 114 56 137 11 23 19 44 19 47
0 2 24 62 54 133 30 70 78 184 107 253 106 255 370 700 572 965 128 168 372
427 477 507 92 70 266 151 430 201 242 74 637 98 850 52 193 -41 408 -158 615
-335 135 -116 339 -331 452 -476 171 -220 333 -378 453 -440 53 -28 60 -29
195 -29 140 0 140 0 201 33 69 37 209 156 296 251 32 34 104 121 160 194 170
222 490 526 668 635 163 100 333 164 484 183 173 21 541 -4 676 -45 25 -8 65
-20 90 -26 110 -29 275 -102 378 -167 66 -41 360 -332 448 -443 135 -170 270
-369 393 -580 184 -317 205 -361 408 -860 30 -74 66 -160 78 -190 13 -30 42
-100 65 -155 22 -55 50 -122 60 -150 10 -27 48 -122 85 -210 115 -278 171
-436 255 -730 113 -391 166 -631 265 -1190 26 -143 48 -261 49 -263 2 -1 100
93 217 210 277 276 625 695 719 866 l24 42 -23 98 c-51 213 -123 439 -205 646
-24 61 -61 154 -81 206 -81 209 -258 628 -392 930 -35 80 -70 159 -77 175
-110 249 -274 554 -421 780 -18 28 -63 97 -100 155 -91 141 -427 644 -511 767
-88 127 -204 285 -331 451 -150 194 -231 321 -259 402 -13 39 -33 137 -44 218
-11 81 -25 172 -30 202 -6 30 -22 141 -35 245 -14 105 -30 217 -35 250 -5 33
-14 107 -20 165 -6 58 -20 157 -30 220 -10 63 -24 187 -30 275 -14 188 -67
636 -79 668 -5 12 -16 61 -26 107 -87 431 -350 985 -623 1310 -178 212 -552
535 -758 653 -247 143 -515 215 -1109 302 -88 13 -191 29 -228 35 -37 7 -70
10 -73 8 -6 -6 -12 -444 -29 -2003 -26 -2387 -28 -2525 -34 -2525 -6 0 -42
159 -62 270 -7 43 0 1104 21 3090 5 514 10 1014 10 1111 l0 177 -52 6 c-92 10
-447 14 -595 7z m-1538 -4801 c166 -16 342 -55 525 -117 188 -63 196 -67 305
-139 83 -54 239 -183 232 -190 -2 -3 -55 20 -118 50 -193 91 -373 160 -479
181 -19 4 -71 15 -115 25 -257 60 -651 67 -880 16 -113 -25 -210 -55 -290 -89
-114 -48 -376 -168 -535 -244 -232 -112 -320 -153 -320 -148 0 3 42 36 93 74
443 328 932 542 1329 580 121 12 132 12 253 1z m3935 -17 c205 -33 431 -113
691 -243 137 -69 339 -188 424 -251 147 -109 176 -131 172 -135 -5 -5 -84 32
-367 168 -150 73 -308 144 -475 214 -89 38 -254 86 -360 106 -94 17 -543 17
-645 0 -295 -50 -483 -109 -755 -237 -65 -30 -120 -54 -122 -51 -10 10 217
186 309 239 57 33 225 94 373 135 284 79 510 96 755 55z"/>
<path d="M5638 6370 c-236 -49 -484 -160 -665 -294 -97 -72 -311 -283 -407
-401 -311 -381 -522 -742 -723 -1240 -365 -901 -395 -983 -516 -1370 -210
-674 -284 -941 -311 -1124 -9 -58 -14 -106 -13 -107 1 -2 81 28 176 66 361
145 739 245 1111 296 225 31 858 20 957 -17 16 -6 27 -26 43 -81 12 -40 32
-107 45 -148 13 -41 49 -156 80 -255 31 -99 73 -232 93 -295 l37 -115 75 0
c64 0 86 5 144 33 122 57 205 39 296 -65 l42 -48 -7 35 c-11 55 -53 129 -93
166 -64 59 -175 67 -251 17 -13 -8 -27 -11 -31 -6 -4 4 -40 118 -78 253 -144
495 -254 878 -287 990 -18 63 -72 250 -119 415 -48 165 -95 328 -106 363 -26
80 -26 125 -1 62 10 -25 70 -173 134 -330 166 -409 329 -814 490 -1215 77
-192 144 -354 148 -359 7 -8 1601 1584 1621 1619 4 6 2 29 -4 51 -6 22 -8 78
-5 127 4 72 10 99 36 152 60 121 157 179 301 179 120 0 218 -53 275 -151 40
-66 59 -156 51 -238 -4 -38 -8 -82 -9 -96 -2 -23 117 -147 802 -838 442 -446
806 -811 810 -811 4 0 32 60 61 132 29 73 136 338 237 588 102 250 252 624
335 830 141 351 186 455 175 405 -3 -11 -21 -76 -42 -145 -20 -69 -45 -156
-56 -195 -10 -38 -32 -115 -49 -170 -17 -55 -45 -149 -62 -210 -17 -60 -42
-148 -56 -195 -13 -47 -34 -121 -47 -165 -13 -44 -67 -231 -120 -415 -53 -184
-115 -400 -138 -480 -22 -80 -44 -149 -48 -153 -3 -5 -26 2 -50 14 -54 28
-148 31 -196 6 -43 -23 -90 -82 -113 -145 -30 -78 -25 -81 33 -25 28 28 66 58
84 67 52 26 119 20 193 -16 55 -26 77 -31 144 -32 l79 -1 139 445 c77 245 144
448 150 451 41 25 590 46 804 30 408 -30 936 -163 1344 -340 52 -22 97 -37
101 -33 16 17 -69 398 -144 647 -14 44 -40 134 -60 200 -110 374 -222 717
-310 945 -105 273 -375 937 -433 1065 -201 444 -518 910 -815 1201 -220 214
-369 309 -641 408 -112 40 -333 95 -343 84 -2 -2 36 -45 85 -96 156 -162 296
-356 394 -546 60 -117 68 -158 42 -221 -9 -20 -32 -45 -57 -61 -50 -31 -249
-115 -439 -185 -74 -27 -151 -56 -170 -64 -52 -22 -248 -82 -342 -104 -167
-41 -266 -51 -478 -51 -188 1 -467 13 -475 22 -2 1 18 104 45 228 26 124 46
227 43 230 -2 2 -88 -82 -191 -186 -171 -174 -194 -194 -264 -227 -112 -54
-192 -70 -318 -65 -181 8 -312 74 -460 232 -181 192 -239 250 -244 245 -3 -3
8 -65 25 -139 17 -74 36 -169 44 -210 7 -41 15 -81 17 -89 5 -24 -56 -30 -357
-37 -323 -8 -402 -1 -610 53 -262 67 -804 268 -931 344 -59 36 -74 64 -74 136
0 116 274 532 479 726 33 32 61 60 61 63 0 7 -33 3 -122 -16z m-364 -1257
c159 -150 340 -286 451 -339 170 -81 354 -109 700 -107 254 1 376 11 494 38
171 39 227 53 244 60 10 4 17 3 17 -3 0 -28 -230 -130 -413 -183 -159 -45
-233 -54 -467 -53 -505 2 -661 78 -979 479 -70 88 -131 166 -135 173 -17 28
11 8 88 -65z m5206 40 c-11 -16 -28 -39 -38 -53 -25 -38 -147 -185 -225 -272
-150 -168 -326 -261 -546 -288 -318 -38 -579 -17 -831 66 -119 40 -330 137
-330 153 0 14 0 14 47 -3 22 -8 108 -28 192 -45 176 -36 477 -57 676 -47 442
23 612 102 1005 464 61 56 83 67 50 25z m-2505 -314 c80 -22 124 -45 267 -140
63 -41 89 -69 51 -55 -35 14 -360 95 -403 101 -53 8 -186 -18 -369 -70 -68
-19 -126 -33 -129 -30 -3 3 -3 6 -1 8 2 1 45 30 94 63 93 63 174 105 235 122
48 14 206 14 255 1z m28 -268 c72 -31 165 -89 188 -117 13 -16 12 -17 -6 -10
-55 22 -285 76 -325 76 -39 0 -269 -54 -324 -76 -35 -14 -8 12 62 60 152 103
273 123 405 67z m-2679 -261 c42 -30 118 -86 168 -123 50 -37 114 -83 142
-102 l52 -34 83 24 c131 38 296 73 411 86 146 16 445 6 573 -20 249 -51 447
-136 447 -192 0 -24 -9 -29 -183 -108 -260 -118 -339 -158 -393 -203 -105 -88
-187 -202 -290 -407 -96 -188 -129 -275 -180 -469 -25 -97 -59 -224 -75 -282
-16 -58 -29 -112 -29 -120 -1 -8 -7 -28 -15 -45 -14 -28 -14 -25 -9 50 44 639
231 1128 528 1376 82 69 234 147 349 180 73 21 100 39 58 39 -11 0 -55 11 -98
25 -208 65 -416 79 -660 45 -164 -22 -140 -18 -357 -70 l-168 -42 -152 149
c-83 82 -186 183 -228 224 -43 41 -78 79 -78 83 0 9 11 2 104 -64z m4927 -160
c-129 -127 -242 -230 -251 -230 -9 0 -36 6 -61 14 -82 26 -313 76 -434 93
-172 24 -393 22 -515 -5 -92 -20 -270 -69 -277 -76 -2 -2 34 -15 81 -30 348
-108 544 -312 711 -739 58 -148 99 -318 130 -537 29 -197 42 -364 27 -340 -9
13 -37 120 -107 395 -76 305 -194 573 -343 784 -102 143 -173 195 -417 305
-262 118 -300 138 -303 163 -6 42 103 100 291 154 154 45 259 60 449 66 241 8
381 -10 651 -83 l128 -34 92 68 c91 68 215 157 312 226 28 19 55 35 60 35 6 0
-96 -103 -224 -229z"/>
<path d="M7823 2943 l-163 -3 0 -710 0 -710 183 2 182 3 3 690 c1 380 0 700
-3 713 -3 13 -12 21 -23 20 -9 -1 -90 -4 -179 -5z"/>
<path d="M7282 2667 l-142 -142 0 -503 0 -503 148 3 147 3 3 643 c1 353 -1
642 -6 642 -4 0 -71 -64 -150 -143z"/>
<path d="M8253 2643 c4 -91 7 -381 7 -645 l0 -478 145 0 145 0 0 503 0 502
-143 143 c-78 78 -146 142 -151 142 -5 0 -6 -70 -3 -167z"/>
<path d="M6733 2181 l-143 -147 0 -257 0 -257 150 0 150 0 0 405 c0 223 -3
404 -7 404 -5 -1 -72 -68 -150 -148z"/>
<path d="M8800 1927 l0 -407 150 0 150 0 0 258 0 257 -150 150 -150 150 0
-408z"/>
<path d="M6180 1378 c0 -7 7 -35 15 -63 9 -27 20 -67 26 -87 l10 -38 1589 0
1589 0 16 58 c9 31 21 70 26 86 5 16 9 35 9 42 0 12 -269 14 -1640 14 -1305 0
-1640 -3 -1640 -12z"/>
<path d="M6280 1076 c0 -3 46 -28 103 -57 116 -59 557 -288 692 -359 100 -53
264 -138 490 -255 83 -43 176 -93 207 -112 l58 -34 157 82 c87 45 167 88 178
94 11 7 101 55 200 108 99 52 340 179 535 282 195 103 381 201 413 217 31 16
57 31 57 34 0 2 -695 4 -1545 4 -850 0 -1545 -2 -1545 -4z"/>
</g>
</svg>
